<?xml version="1.0" encoding="UTF-8"?>
<svg width="1200" height="1600" viewBox="0 0 1200 1600" fill="none" xmlns="http://www.w3.org/2000/svg">
  <defs>
    <linearGradient id="g1" x1="0" y1="0" x2="1" y2="1">
      <stop offset="0%" stop-color="#A855F7"/>
      <stop offset="100%" stop-color="#EC4899"/>
    </linearGradient>
    <linearGradient id="g2" x1="0" y1="0" x2="1" y2="0">
      <stop offset="0%" stop-color="#ffffff" stop-opacity="0.14"/>
      <stop offset="100%" stop-color="#ffffff" stop-opacity="0.02"/>
    </linearGradient>
    <filter id="blur" x="-20%" y="-20%" width="140%" height="140%">
      <feGaussianBlur stdDeviation="120" />
    </filter>
  </defs>

  <rect width="1200" height="1600" fill="url(#g1)"/>

  <g filter="url(#blur)">
    <circle cx="200" cy="260" r="220" fill="#ffffff" fill-opacity="0.25"/>
    <circle cx="1100" cy="300" r="260" fill="#ffffff" fill-opacity="0.16"/>
    <circle cx="1000" cy="1450" r="250" fill="#ffffff" fill-opacity="0.14"/>
    <circle cx="120" cy="1200" r="200" fill="#ffffff" fill-opacity="0.15"/>
  </g>

  <g opacity="0.25">
    <path d="M0 120C220 220 380 180 540 240C700 300 800 420 980 420C1120 420 1200 380 1200 380V0H0V120Z" fill="url(#g2)"/>
    <path d="M0 1100C260 1200 440 1120 600 1180C760 1240 860 1380 1040 1380C1140 1380 1200 1340 1200 1340V900H0V1100Z" fill="url(#g2)"/>
  </g>

  <g opacity="0.25" stroke="#ffffff" stroke-opacity="0.35">
    <path d="M-40 140C240 240 480 180 680 260C880 340 1040 520 1240 520"/>
    <path d="M-40 1540C280 1440 520 1500 700 1440C880 1380 1040 1260 1240 1260"/>
  </g>
</svg>
